# xmcd
#
# Track frame offsets: 
#        150
#        21292
#        44462
#        61630
#        86512
#        103452
#        116630
#        130712
#        151495
#        168900
#        187515
#        202690
#
# Disc length: 2927 seconds
#
# Revision: 0
# Processed by: cddbd v1.5.1PL2 Copyright (c) Steve Scherf et al.
# Submitted via: ExactAudioCopy v0.95b3
#
DISCID=8f0b6d0c
DTITLE=Larry LaDon - Living On Borrowed Time
DYEAR=2002
DGENRE=Blues
TTITLE0=Automobile
TTITLE1=Living On Borrowed Time
TTITLE2=Everybody's Gettin' Them Some
TTITLE3=Early In The Morning
TTITLE4=Preacher's Daughter
TTITLE5=I'll Be Anything You Want Me To Be
TTITLE6=Doctor Lady
TTITLE7=Shoulda Been You
TTITLE8=Sister Do
TTITLE9=Brandi And Champagne
TTITLE10=Tight Red Dress
TTITLE11=Every Night In The Week
EXTD=
EXTT0=
EXTT1=
EXTT2=
EXTT3=
EXTT4=
EXTT5=
EXTT6=
EXTT7=
EXTT8=
EXTT9=
EXTT10=
EXTT11=
PLAYORDER=
